<svg version="1.0" xmlns="http://www.w3.org/2000/svg" width="984" height="266" viewBox="0 0 984 266">
	<g fill="#3ED7F9">
		<path d="M0 133v133h984V0H0v133zm569 0v123H10V10h559v123zm213.3-43c11 3.4 21.2 12.2 26.7 23 15.3 30.1-6.7 65.1-40.8 65-39.2-.1-59-47.1-32-75.6 12.4-13.1 29.2-17.6 46.1-12.4zm-113.1 2.3c6.7 3.3 9.3 6.6 11 13.6 1.8 7.8-.2 15.2-5.7 21l-4.3 4.5 4.4 2.7c6.2 4 9.7 9.7 10.2 17 .6 8.1-1.7 13.7-7.5 18.9-6.8 5.9-11.6 7-31.5 7H629V88.8l17.3.4c16.5.3 17.4.4 22.9 3.1zm203.3 13.2c9.5 14.6 10.9 16.3 12 14.8.7-1 5.1-8.4 9.9-16.6l8.7-14.7h15l-1.9 2.7c-5.8 8.4-25.5 39.9-25.5 40.8 0 .5 4.8 8.4 10.8 17.5 5.9 9.1 12.3 18.9 14.2 21.7l3.4 5.3h-15.6l-11-17c-6-9.3-11.2-17-11.5-17-.3 0-5 7.5-10.5 16.6-5.4 9.1-10.4 16.8-11 17.1-.7.2-4.1.3-7.7.1l-6.4-.3 14.3-22.4c7.8-12.3 14-22.9 13.6-23.5-.4-.6-6.4-10-13.5-20.8-7-10.9-12.8-20-12.8-20.3 0-.3 3.3-.5 7.4-.5h7.4l10.7 16.5z"/>
		<path d="M382.7 89.4c-11.3 3.1-18 11.3-18.1 22-.1 11.5 4.6 16.9 21.4 24.1 5.7 2.5 11.9 5.7 13.8 7.2 8.5 6.5 7.6 17.5-2 22.4-6.4 3.3-16.3 2.4-25.6-2.2l-7.1-3.5-2.6 4.8-2.6 4.7 2.4 1.5c1.3.9 5.2 2.8 8.8 4.3 5.6 2.4 7.7 2.7 17.4 2.8 10.1 0 11.4-.2 16.1-2.7 9.1-4.8 13.4-12.1 13.4-22.5 0-13.6-4.8-18.6-26.3-27.3-10.3-4.3-14.7-8.3-14.7-13.8 0-11.2 13.9-15.3 30-8.8l5.8 2.3 2.2-4.6c2.1-4.3 2.1-4.6.3-5.8-6-4.5-24.5-7.2-32.6-4.9zM56 133v44h12V145.3l11.3-.5c13.3-.6 18.6-2.6 24.6-9.4 9.4-10.7 8.7-30.4-1.4-39.3C96 90.5 89.8 89 72 89H56v44zm35-30.5c6.7 3.5 9.3 14.4 5.3 22.2-3.1 5.9-8.7 8.3-19.5 8.3H68v-32h10c7 0 11 .5 13 1.5zM152.2 122.2c.3 31.5.4 33.6 2.4 37.9 2.9 6.1 8.5 11.6 15.3 14.8 4.8 2.2 6.9 2.6 15.1 2.6s10.3-.4 15.2-2.7c7.3-3.4 13.2-9.5 15.8-16.4 1.9-5.1 2-7.7 2-37.4V89h-12v31c0 28.6-.2 31.4-1.9 34.8-3.8 7.4-10.2 11.2-18.9 11.2-7.5 0-13.6-3.1-17.7-8.9l-3-4.3-.3-31.9-.3-31.9h-12l.3 33.2zM266 133v44h58.1l-.3-5.8-.3-5.7-22.2-.3-22.3-.2V89h-13v44zM462 133v44h60.1l-.3-5.8-.3-5.7-23.7-.3-23.8-.2v-26l20.3-.2 20.2-.3.3-5.8.3-5.7H474v-26l22.8-.2 22.7-.3.3-5.8.3-5.7H462v44zM758.7 101c-5.9 1.8-13 7.4-16.8 13.3-8.9 13.7-7.2 31.2 4.1 42.4 6.4 6.3 12.1 8.7 21.7 9.1 7.1.4 8.8.1 14.2-2.3 6.7-3 12.6-8.7 16.3-15.7 2-3.7 2.3-5.7 2.3-14.8 0-9-.3-11.1-2.3-14.8-3.6-6.8-9.2-12.3-15.7-15.4-5-2.3-7.2-2.8-13.5-2.7-4.1 0-8.8.5-10.3.9zM641 114v13h9c13.3 0 18-3.3 18-12.9 0-10-4.2-13.1-17.7-13.1H641v13zM641 152.5v13.7l10.8-.4c15.4-.6 20.5-3.9 20.5-13.3 0-9.2-5.6-12.7-21-13.3l-10.3-.4v13.7z"/>
	</g>
</svg>